<svg xmlns="http://www.w3.org/2000/svg" xmlns:xlink="http://www.w3.org/1999/xlink" width="1024" zoomAndPan="magnify" viewBox="0 0 768 767.999994" height="1024" preserveAspectRatio="xMidYMid meet" version="1.0"><defs><clipPath id="id1"><path d="M 252 553 L 357 553 L 357 657.75 L 252 657.75 Z M 252 553 " clip-rule="nonzero"/></clipPath><clipPath id="id2"><path d="M 557 552 L 664 552 L 664 657.75 L 557 657.75 Z M 557 552 " clip-rule="nonzero"/></clipPath></defs><path fill="#a6a6a6" d="M 5.484375 4.617188 C 0.0078125 10.59375 0.0078125 23.292969 5.734375 28.265625 C 9.464844 31.753906 18.179688 32.5 59.753906 33 L 109.042969 33.742188 L 124.226562 79.050781 C 132.691406 103.941406 141.15625 126.355469 143.640625 128.59375 C 147.375 132.324219 171.027344 132.824219 437.394531 133.074219 C 628.832031 133.324219 726.917969 134.066406 726.667969 135.8125 C 726.417969 137.054688 708.738281 199.042969 687.085938 273.234375 L 647.503906 408.414062 L 265.625 408.414062 L 262.886719 400.203125 C 234.515625 310.085938 199.164062 202.289062 197.171875 199.550781 C 189.207031 190.09375 172.523438 192.582031 168.539062 204.035156 C 166.546875 209.757812 171.777344 228.433594 201.894531 322.78125 C 228.28125 405.183594 238.988281 435.804688 242.96875 438.789062 C 246.460938 441.777344 252.679688 443.273438 261.894531 443.273438 C 273.59375 443.273438 275.339844 443.773438 274.089844 447.503906 C 273.335938 449.992188 269.855469 465.675781 266.367188 482.355469 C 259.648438 514.71875 260.140625 519.941406 270.097656 525.425781 C 273.085938 526.921875 339.554688 527.914062 463.78125 527.914062 L 652.730469 527.914062 L 657.953125 522.1875 C 664.925781 514.71875 664.925781 505.261719 657.703125 498.539062 L 651.980469 493.066406 L 299.488281 493.066406 L 301.230469 484.851562 C 302.226562 480.617188 304.71875 469.417969 306.707031 459.960938 L 310.4375 443.28125 L 487.9375 443.28125 C 653.238281 443.28125 665.683594 443.03125 670.660156 438.800781 C 674.890625 435.558594 686.34375 399.464844 721.941406 277.722656 C 747.339844 191.335938 768 117.890625 768 114.410156 C 768 110.929688 766.011719 106.195312 763.519531 103.949219 C 759.285156 99.96875 733.894531 99.71875 463.046875 99.21875 L 167.054688 98.476562 L 152.363281 53.667969 C 144.402344 29.015625 135.9375 6.863281 133.941406 4.617188 C 130.210938 0.636719 123.984375 0.136719 69.714844 0.136719 C 14.449219 0.144531 9.222656 0.636719 5.484375 4.617188 Z M 5.484375 4.617188 " fill-opacity="1" fill-rule="nonzero"/><g clip-path="url(#id1)"><path fill="#a6a6a6" d="M 280.070312 558.289062 C 262.894531 567.503906 254.179688 581.6875 253.1875 602.105469 C 252.4375 616.042969 253.1875 620.527344 258.167969 629.984375 C 267.375 647.164062 281.566406 655.878906 301.984375 656.871094 C 315.921875 657.613281 320.402344 656.871094 329.863281 651.886719 C 347.039062 642.671875 355.753906 628.488281 356.746094 608.074219 C 357.496094 594.132812 356.746094 589.652344 351.773438 580.191406 C 342.566406 563.015625 328.367188 554.300781 307.957031 553.308594 C 294.011719 552.5625 289.527344 553.316406 280.070312 558.289062 Z M 317.910156 591.902344 C 323.636719 596.886719 323.886719 611.820312 318.160156 618.046875 C 313.183594 623.773438 298.242188 624.023438 292.015625 618.296875 C 286.039062 612.820312 286.039062 599.125 292.515625 592.65625 C 298.492188 586.671875 311.691406 586.175781 317.910156 591.902344 Z M 317.910156 591.902344 " fill-opacity="1" fill-rule="nonzero"/></g><g clip-path="url(#id2)"><path fill="#a6a6a6" d="M 587.265625 557.546875 C 581.789062 560.035156 573.816406 566.261719 569.34375 571.488281 C 541.214844 605.84375 565.363281 657.371094 609.675781 657.371094 C 626.351562 657.371094 632.828125 655.125 644.773438 644.425781 C 673.65625 619.28125 667.679688 575.460938 633.070312 557.539062 C 621.121094 551.570312 600.710938 551.320312 587.265625 557.546875 Z M 623.613281 593.148438 C 634.566406 604.851562 626.351562 622.519531 610.167969 622.519531 C 600.960938 622.519531 591.246094 613.558594 591.246094 605.09375 C 591.246094 602.605469 593.492188 597.871094 596.472656 594.140625 C 603.199219 585.675781 616.144531 585.175781 623.613281 593.148438 Z M 623.613281 593.148438 " fill-opacity="1" fill-rule="nonzero"/></g></svg>