<svg xmlns="http://www.w3.org/2000/svg" xmlns:xlink="http://www.w3.org/1999/xlink" width="1024" zoomAndPan="magnify" viewBox="0 0 768 767.999994" height="1024" preserveAspectRatio="xMidYMid meet" version="1.0"><defs><clipPath id="id1"><path d="M 237.875 1 L 600.875 1 L 600.875 767 L 237.875 767 Z M 237.875 1 " clip-rule="nonzero"/></clipPath></defs><g clip-path="url(#id1)"><path fill="#ffffff" d="M 517.234375 127.417969 L 600.953125 127.417969 L 600.953125 1.175781 L 493.9375 1.175781 L 493.9375 1.640625 C 353.347656 6.730469 324.492188 85.605469 321.9375 168.707031 L 321.671875 168.707031 L 321.671875 256.355469 L 237.941406 256.355469 L 237.941406 382.675781 L 321.671875 382.675781 L 321.671875 766.867188 L 471.972656 766.867188 L 471.972656 382.675781 L 579.683594 382.675781 L 600.953125 256.355469 L 471.972656 256.355469 L 471.972656 177.957031 C 471.972656 150.074219 490.578125 127.417969 517.234375 127.417969 Z M 517.234375 127.417969 " fill-opacity="1" fill-rule="nonzero"/></g></svg>