<svg xmlns="http://www.w3.org/2000/svg" xmlns:xlink="http://www.w3.org/1999/xlink" width="1024" zoomAndPan="magnify" viewBox="0 0 768 767.999994" height="1024" preserveAspectRatio="xMidYMid meet" version="1.0"><path fill="#ff5f00" d="M 273.511719 231.632812 L 499.824219 231.632812 L 499.824219 601.40625 L 273.511719 601.40625 Z M 273.511719 231.632812 " fill-opacity="1" fill-rule="nonzero"/><path fill="#eb001b" d="M 296.824219 416.554688 C 296.820312 412.121094 296.941406 407.691406 297.1875 403.265625 C 297.4375 398.839844 297.808594 394.421875 298.304688 390.019531 C 298.800781 385.613281 299.425781 381.226562 300.171875 376.855469 C 300.914062 372.488281 301.785156 368.140625 302.777344 363.820312 C 303.769531 359.5 304.882812 355.210938 306.117188 350.957031 C 307.351562 346.699219 308.707031 342.480469 310.179688 338.296875 C 311.652344 334.117188 313.242188 329.980469 314.949219 325.890625 C 316.660156 321.800781 318.480469 317.761719 320.417969 313.777344 C 322.355469 309.789062 324.402344 305.859375 326.5625 301.988281 C 328.71875 298.117188 330.988281 294.308594 333.359375 290.566406 C 335.734375 286.824219 338.214844 283.152344 340.796875 279.550781 C 343.378906 275.949219 346.0625 272.421875 348.84375 268.972656 C 351.625 265.519531 354.503906 262.152344 357.476562 258.867188 C 360.449219 255.578125 363.511719 252.378906 366.667969 249.265625 C 369.820312 246.152344 373.0625 243.128906 376.386719 240.199219 C 379.710938 237.269531 383.117188 234.4375 386.601562 231.699219 C 383.730469 229.441406 380.808594 227.253906 377.835938 225.128906 C 374.863281 223.007812 371.839844 220.957031 368.773438 218.976562 C 365.703125 217 362.589844 215.089844 359.433594 213.253906 C 356.273438 211.421875 353.074219 209.660156 349.835938 207.972656 C 346.59375 206.289062 343.316406 204.675781 340.003906 203.144531 C 336.6875 201.609375 333.339844 200.15625 329.957031 198.777344 C 326.574219 197.402344 323.160156 196.105469 319.71875 194.886719 C 316.273438 193.667969 312.804688 192.53125 309.308594 191.476562 C 305.8125 190.417969 302.292969 189.445312 298.75 188.554688 C 295.210938 187.660156 291.648438 186.851562 288.070312 186.125 C 284.492188 185.398438 280.898438 184.757812 277.289062 184.199219 C 273.679688 183.640625 270.058594 183.167969 266.425781 182.777344 C 262.796875 182.386719 259.15625 182.082031 255.511719 181.863281 C 251.867188 181.640625 248.21875 181.507812 244.566406 181.457031 C 240.914062 181.40625 237.265625 181.441406 233.613281 181.5625 C 229.964844 181.683594 226.320312 181.890625 222.679688 182.179688 C 219.039062 182.46875 215.40625 182.84375 211.78125 183.304688 C 208.160156 183.765625 204.550781 184.308594 200.953125 184.9375 C 197.351562 185.5625 193.773438 186.273438 190.207031 187.070312 C 186.644531 187.863281 183.097656 188.742188 179.574219 189.703125 C 176.050781 190.664062 172.550781 191.703125 169.078125 192.828125 C 165.601562 193.953125 162.15625 195.15625 158.734375 196.441406 C 155.316406 197.722656 151.929688 199.085938 148.574219 200.527344 C 145.21875 201.972656 141.898438 203.492188 138.613281 205.085938 C 135.328125 206.683594 132.082031 208.355469 128.875 210.105469 C 125.667969 211.851562 122.503906 213.675781 119.382812 215.570312 C 116.261719 217.464844 113.183594 219.433594 110.15625 221.472656 C 107.125 223.511719 104.144531 225.621094 101.210938 227.800781 C 98.277344 229.976562 95.398438 232.222656 92.570312 234.535156 C 89.746094 236.847656 86.972656 239.226562 84.257812 241.667969 C 81.539062 244.109375 78.882812 246.613281 76.28125 249.179688 C 73.679688 251.742188 71.140625 254.367188 68.664062 257.050781 C 66.1875 259.738281 63.773438 262.476562 61.421875 265.273438 C 59.074219 268.070312 56.789062 270.921875 54.570312 273.824219 C 52.355469 276.726562 50.207031 279.679688 48.125 282.683594 C 46.046875 285.6875 44.039062 288.734375 42.101562 291.832031 C 40.164062 294.929688 38.300781 298.070312 36.507812 301.253906 C 34.71875 304.4375 33 307.660156 31.359375 310.925781 C 29.71875 314.191406 28.15625 317.488281 26.667969 320.828125 C 25.179688 324.164062 23.773438 327.535156 22.441406 330.9375 C 21.109375 334.339844 19.859375 337.769531 18.691406 341.230469 C 17.519531 344.691406 16.429688 348.175781 15.421875 351.6875 C 14.414062 355.199219 13.488281 358.734375 12.644531 362.289062 C 11.804688 365.84375 11.042969 369.414062 10.367188 373.007812 C 9.6875 376.597656 9.097656 380.199219 8.585938 383.816406 C 8.078125 387.4375 7.652344 391.0625 7.3125 394.699219 C 6.972656 398.339844 6.71875 401.980469 6.550781 405.632812 C 6.378906 409.28125 6.292969 412.933594 6.292969 416.585938 C 6.292969 420.238281 6.378906 423.890625 6.550781 427.539062 C 6.71875 431.191406 6.972656 434.832031 7.3125 438.472656 C 7.652344 442.109375 8.078125 445.738281 8.585938 449.355469 C 9.097656 452.972656 9.6875 456.574219 10.367188 460.167969 C 11.042969 463.757812 11.804688 467.328125 12.644531 470.882812 C 13.488281 474.4375 14.414062 477.972656 15.421875 481.484375 C 16.429688 484.996094 17.519531 488.480469 18.691406 491.941406 C 19.859375 495.402344 21.109375 498.832031 22.441406 502.238281 C 23.773438 505.640625 25.179688 509.007812 26.667969 512.34375 C 28.15625 515.683594 29.71875 518.980469 31.359375 522.246094 C 33 525.511719 34.71875 528.734375 36.507812 531.917969 C 38.300781 535.101562 40.164062 538.242188 42.101562 541.339844 C 44.039062 544.4375 46.046875 547.484375 48.128906 550.488281 C 50.207031 553.492188 52.355469 556.445312 54.574219 559.347656 C 56.789062 562.25 59.074219 565.101562 61.421875 567.898438 C 63.773438 570.695312 66.1875 573.433594 68.664062 576.121094 C 71.140625 578.804688 73.679688 581.429688 76.28125 583.992188 C 78.882812 586.558594 81.539062 589.0625 84.257812 591.503906 C 86.972656 593.945312 89.746094 596.324219 92.570312 598.636719 C 95.398438 600.949219 98.28125 603.195312 101.210938 605.371094 C 104.144531 607.550781 107.125 609.660156 110.15625 611.699219 C 113.183594 613.738281 116.261719 615.707031 119.382812 617.601562 C 122.503906 619.496094 125.667969 621.320312 128.875 623.066406 C 132.082031 624.816406 135.328125 626.488281 138.613281 628.085938 C 141.898438 629.679688 145.21875 631.199219 148.574219 632.644531 C 151.929688 634.085938 155.316406 635.449219 158.734375 636.730469 C 162.15625 638.015625 165.601562 639.21875 169.078125 640.34375 C 172.550781 641.46875 176.050781 642.507812 179.574219 643.46875 C 183.097656 644.429688 186.644531 645.308594 190.207031 646.101562 C 193.773438 646.898438 197.355469 647.609375 200.953125 648.234375 C 204.550781 648.863281 208.160156 649.40625 211.78125 649.867188 C 215.40625 650.328125 219.039062 650.703125 222.679688 650.992188 C 226.320312 651.28125 229.964844 651.488281 233.613281 651.609375 C 237.265625 651.730469 240.914062 651.765625 244.566406 651.714844 C 248.21875 651.664062 251.867188 651.53125 255.511719 651.308594 C 259.15625 651.089844 262.796875 650.785156 266.425781 650.394531 C 270.058594 650.003906 273.679688 649.53125 277.289062 648.972656 C 280.898438 648.414062 284.492188 647.773438 288.070312 647.046875 C 291.648438 646.320312 295.210938 645.511719 298.75 644.617188 C 302.292969 643.726562 305.8125 642.753906 309.308594 641.695312 C 312.804688 640.640625 316.273438 639.503906 319.71875 638.285156 C 323.160156 637.066406 326.574219 635.769531 329.957031 634.394531 C 333.339844 633.015625 336.6875 631.5625 340.003906 630.027344 C 343.316406 628.496094 346.59375 626.882812 349.835938 625.199219 C 353.074219 623.511719 356.273438 621.75 359.433594 619.917969 C 362.589844 618.082031 365.703125 616.171875 368.773438 614.195312 C 371.839844 612.214844 374.863281 610.164062 377.835938 608.039062 C 380.808594 605.917969 383.730469 603.730469 386.601562 601.472656 C 383.117188 598.734375 379.710938 595.902344 376.382812 592.96875 C 373.058594 590.039062 369.816406 587.015625 366.660156 583.902344 C 363.507812 580.785156 360.441406 577.585938 357.46875 574.296875 C 354.496094 571.007812 351.617188 567.640625 348.832031 564.1875 C 346.050781 560.734375 343.367188 557.207031 340.785156 553.605469 C 338.203125 550 335.722656 546.328125 333.347656 542.582031 C 330.972656 538.839844 328.707031 535.03125 326.546875 531.160156 C 324.386719 527.285156 322.339844 523.355469 320.402344 519.367188 C 318.464844 515.378906 316.644531 511.339844 314.9375 507.246094 C 313.230469 503.152344 311.636719 499.015625 310.164062 494.835938 C 308.691406 490.652344 307.339844 486.433594 306.105469 482.171875 C 304.871094 477.914062 303.757812 473.625 302.765625 469.300781 C 301.773438 464.980469 300.90625 460.632812 300.160156 456.261719 C 299.417969 451.890625 298.796875 447.503906 298.300781 443.097656 C 297.800781 438.691406 297.429688 434.273438 297.183594 429.84375 C 296.9375 425.417969 296.816406 420.988281 296.824219 416.554688 Z M 296.824219 416.554688 " fill-opacity="1" fill-rule="nonzero"/><path fill="#f79e1b" d="M 744.484375 562.28125 L 744.484375 554.703125 L 747.75 554.703125 L 747.75 553.136719 L 739.980469 553.136719 L 739.980469 554.703125 L 743.050781 554.703125 L 743.050781 562.28125 Z M 759.570312 562.28125 L 759.570312 553.136719 L 757.21875 553.136719 L 754.476562 559.667969 L 751.734375 553.136719 L 749.382812 553.136719 L 749.382812 562.28125 L 751.082031 562.28125 L 751.082031 555.355469 L 753.625 561.300781 L 755.390625 561.300781 L 757.9375 555.355469 L 757.9375 562.28125 Z M 759.570312 562.28125 " fill-opacity="1" fill-rule="nonzero"/><path fill="#f79e1b" d="M 766.945312 416.554688 C 766.945312 422.035156 766.753906 427.511719 766.371094 432.980469 C 765.988281 438.445312 765.417969 443.894531 764.652344 449.324219 C 763.890625 454.753906 762.9375 460.148438 761.796875 465.507812 C 760.65625 470.871094 759.328125 476.1875 757.816406 481.453125 C 756.300781 486.722656 754.609375 491.933594 752.730469 497.082031 C 750.855469 502.234375 748.800781 507.3125 746.570312 512.320312 C 744.335938 517.324219 741.933594 522.246094 739.355469 527.085938 C 736.78125 531.925781 734.039062 536.667969 731.132812 541.3125 C 728.222656 545.960938 725.160156 550.5 721.933594 554.929688 C 718.707031 559.363281 715.332031 563.675781 711.808594 567.875 C 708.28125 572.070312 704.613281 576.136719 700.800781 580.078125 C 696.992188 584.015625 693.046875 587.816406 688.96875 591.480469 C 684.894531 595.144531 680.695312 598.660156 676.371094 602.03125 C 672.050781 605.398438 667.613281 608.613281 663.066406 611.671875 C 658.519531 614.730469 653.871094 617.628906 649.125 620.363281 C 644.375 623.097656 639.535156 625.660156 634.605469 628.058594 C 629.675781 630.453125 624.671875 632.671875 619.585938 634.71875 C 614.503906 636.765625 609.351562 638.628906 604.136719 640.3125 C 598.921875 642 593.65625 643.5 588.335938 644.816406 C 583.019531 646.132812 577.660156 647.261719 572.261719 648.203125 C 566.863281 649.144531 561.4375 649.898438 555.988281 650.457031 C 550.535156 651.019531 545.070312 651.390625 539.59375 651.570312 C 534.117188 651.75 528.640625 651.738281 523.167969 651.535156 C 517.691406 651.332031 512.226562 650.9375 506.78125 650.351562 C 501.332031 649.769531 495.910156 648.992188 490.515625 648.027344 C 485.121094 647.0625 479.765625 645.910156 474.453125 644.570312 C 469.140625 643.230469 463.878906 641.710938 458.671875 640 C 453.464844 638.292969 448.324219 636.40625 443.25 634.339844 C 438.171875 632.273438 433.175781 630.03125 428.257812 627.613281 C 423.339844 625.199219 418.511719 622.613281 413.773438 619.859375 C 409.035156 617.101562 404.398438 614.1875 399.867188 611.109375 C 395.332031 608.027344 390.910156 604.796875 386.601562 601.40625 C 390.085938 598.667969 393.492188 595.832031 396.816406 592.898438 C 400.140625 589.96875 403.378906 586.945312 406.53125 583.828125 C 409.683594 580.714844 412.746094 577.511719 415.71875 574.222656 C 418.691406 570.933594 421.570312 567.566406 424.351562 564.113281 C 427.132812 560.664062 429.8125 557.136719 432.394531 553.53125 C 434.976562 549.929688 437.457031 546.257812 439.832031 542.511719 C 442.207031 538.769531 444.472656 534.960938 446.632812 531.089844 C 448.789062 527.21875 450.839844 523.289062 452.777344 519.300781 C 454.710938 515.3125 456.535156 511.277344 458.246094 507.183594 C 459.953125 503.09375 461.542969 498.957031 463.019531 494.777344 C 464.496094 490.597656 465.851562 486.378906 467.085938 482.121094 C 468.324219 477.863281 469.4375 473.574219 470.429688 469.253906 C 471.425781 464.933594 472.296875 460.589844 473.042969 456.21875 C 473.792969 451.847656 474.417969 447.460938 474.917969 443.058594 C 475.417969 438.652344 475.792969 434.234375 476.042969 429.808594 C 476.292969 425.382812 476.417969 420.953125 476.417969 416.519531 C 476.417969 412.085938 476.292969 407.65625 476.042969 403.230469 C 475.792969 398.804688 475.417969 394.390625 474.917969 389.984375 C 474.417969 385.578125 473.792969 381.191406 473.042969 376.820312 C 472.296875 372.453125 471.425781 368.105469 470.429688 363.785156 C 469.4375 359.464844 468.324219 355.175781 467.085938 350.921875 C 465.851562 346.664062 464.496094 342.445312 463.019531 338.261719 C 461.542969 334.082031 459.953125 329.945312 458.246094 325.855469 C 456.535156 321.765625 454.710938 317.726562 452.777344 313.738281 C 450.839844 309.75 448.789062 305.824219 446.632812 301.949219 C 444.472656 298.078125 442.207031 294.273438 439.832031 290.527344 C 437.457031 286.785156 434.976562 283.113281 432.394531 279.507812 C 429.8125 275.90625 427.132812 272.378906 424.351562 268.925781 C 421.570312 265.476562 418.691406 262.105469 415.71875 258.816406 C 412.746094 255.527344 409.683594 252.328125 406.53125 249.210938 C 403.378906 246.097656 400.140625 243.074219 396.816406 240.140625 C 393.492188 237.207031 390.085938 234.371094 386.601562 231.632812 C 390.910156 228.246094 395.332031 225.011719 399.867188 221.933594 C 404.398438 218.855469 409.035156 215.9375 413.773438 213.183594 C 418.511719 210.429688 423.339844 207.84375 428.257812 205.425781 C 433.175781 203.011719 438.171875 200.769531 443.25 198.703125 C 448.324219 196.632812 453.464844 194.746094 458.671875 193.039062 C 463.878906 191.332031 469.140625 189.808594 474.453125 188.46875 C 479.765625 187.128906 485.121094 185.976562 490.515625 185.011719 C 495.910156 184.046875 501.332031 183.273438 506.78125 182.6875 C 512.226562 182.101562 517.691406 181.707031 523.167969 181.503906 C 528.640625 181.300781 534.117188 181.289062 539.59375 181.46875 C 545.074219 181.648438 550.535156 182.019531 555.988281 182.582031 C 561.4375 183.144531 566.863281 183.894531 572.261719 184.839844 C 577.660156 185.78125 583.019531 186.910156 588.335938 188.226562 C 593.65625 189.542969 598.921875 191.042969 604.136719 192.726562 C 609.351562 194.414062 614.503906 196.277344 619.585938 198.324219 C 624.671875 200.367188 629.675781 202.589844 634.605469 204.984375 C 639.535156 207.378906 644.375 209.945312 649.125 212.679688 C 653.875 215.414062 658.523438 218.308594 663.070312 221.371094 C 667.617188 224.429688 672.050781 227.644531 676.371094 231.011719 C 680.695312 234.382812 684.894531 237.898438 688.972656 241.5625 C 693.046875 245.226562 696.992188 249.027344 700.800781 252.96875 C 704.613281 256.90625 708.28125 260.972656 711.808594 265.171875 C 715.335938 269.367188 718.710938 273.679688 721.933594 278.113281 C 725.160156 282.542969 728.226562 287.082031 731.132812 291.730469 C 734.042969 296.375 736.78125 301.121094 739.359375 305.957031 C 741.933594 310.796875 744.339844 315.71875 746.570312 320.726562 C 748.800781 325.730469 750.855469 330.808594 752.734375 335.960938 C 754.609375 341.109375 756.304688 346.320312 757.816406 351.589844 C 759.328125 356.855469 760.65625 362.171875 761.796875 367.535156 C 762.9375 372.894531 763.890625 378.289062 764.652344 383.71875 C 765.417969 389.148438 765.992188 394.59375 766.371094 400.0625 C 766.753906 405.53125 766.945312 411.007812 766.945312 416.488281 Z M 766.945312 416.554688 " fill-opacity="1" fill-rule="nonzero"/></svg>