<svg xmlns="http://www.w3.org/2000/svg" xmlns:xlink="http://www.w3.org/1999/xlink" width="1024" zoomAndPan="magnify" viewBox="0 0 768 767.999994" height="1024" preserveAspectRatio="xMidYMid meet" version="1.0"><path fill="#27346a" d="M 632.929688 57.957031 C 597.339844 17.417969 533.054688 0.0390625 450.769531 0.0390625 L 212.019531 0.0390625 C 195.1875 0.0390625 180.886719 12.277344 178.25 28.867188 L 78.835938 659.222656 C 76.859375 671.652344 86.488281 682.90625 99.089844 682.90625 L 246.492188 682.90625 L 283.511719 448.167969 L 282.363281 455.519531 C 285 438.902344 299.195312 426.675781 316.003906 426.675781 L 386.050781 426.675781 C 523.660156 426.675781 631.398438 370.804688 662.878906 209.164062 C 663.796875 204.382812 664.613281 199.730469 665.300781 195.183594 C 661.34375 193.082031 661.34375 193.082031 665.300781 195.183594 C 674.699219 135.441406 665.25 94.777344 632.929688 57.957031 " fill-opacity="1" fill-rule="nonzero"/><path fill="#27346a" d="M 339.917969 173.660156 C 343.851562 171.789062 348.214844 170.75 352.8125 170.75 L 540 170.75 C 562.160156 170.75 582.839844 172.195312 601.730469 175.234375 C 607.144531 176.105469 612.402344 177.101562 617.507812 178.25 C 622.589844 179.375 627.542969 180.648438 632.34375 182.054688 C 634.742188 182.753906 637.117188 183.476562 639.441406 184.242188 C 648.707031 187.34375 657.363281 190.953125 665.300781 195.183594 C 674.695312 135.417969 665.25 94.777344 632.929688 57.957031 C 597.339844 17.417969 533.054688 0.0390625 450.769531 0.0390625 L 212 0.0390625 C 195.1875 0.0390625 180.886719 12.277344 178.25 28.867188 L 78.835938 659.195312 C 76.859375 671.652344 86.488281 682.882812 99.070312 682.882812 L 246.492188 682.882812 L 323.292969 195.972656 C 324.867188 185.984375 331.28125 177.804688 339.917969 173.664062 Z M 339.917969 173.660156 " fill-opacity="1" fill-rule="nonzero"/><path fill="#2790c3" d="M 662.875 209.160156 C 631.398438 370.777344 523.660156 426.675781 386.050781 426.675781 L 315.980469 426.675781 C 299.171875 426.675781 284.976562 438.902344 282.363281 455.515625 L 236.308594 747.378906 C 234.589844 758.25 243.003906 768.128906 254.011719 768.128906 L 378.265625 768.128906 C 392.96875 768.128906 405.480469 757.40625 407.777344 742.886719 L 409.003906 736.554688 L 432.414062 588.1875 L 433.921875 579.996094 C 436.21875 565.472656 448.730469 554.777344 463.433594 554.777344 L 482.046875 554.777344 C 602.421875 554.777344 696.652344 505.875 724.199219 364.5 C 735.6875 305.414062 729.738281 256.078125 699.332031 221.421875 C 690.117188 210.925781 678.652344 202.257812 665.300781 195.183594 C 664.585938 199.75 663.796875 204.382812 662.875 209.160156 Z M 662.875 209.160156 " fill-opacity="1" fill-rule="nonzero"/><path fill="#1f264f" d="M 632.367188 182.054688 C 627.566406 180.648438 622.613281 179.375 617.507812 178.25 C 612.429688 177.121094 607.144531 176.125 601.757812 175.253906 C 582.839844 172.195312 562.183594 170.75 540 170.75 L 352.835938 170.75 C 348.214844 170.75 343.851562 171.789062 339.945312 173.683594 C 331.28125 177.824219 324.886719 185.984375 323.3125 195.988281 L 283.53125 448.164062 L 282.382812 455.515625 C 285 438.902344 299.191406 426.675781 316.003906 426.675781 L 386.078125 426.675781 C 523.660156 426.675781 631.421875 370.804688 662.902344 209.160156 C 663.820312 204.382812 664.613281 199.75 665.328125 195.183594 C 657.363281 190.976562 648.734375 187.34375 639.441406 184.261719 C 637.140625 183.5 634.765625 182.753906 632.367188 182.054688 " fill-opacity="1" fill-rule="nonzero"/></svg>