<svg xmlns="http://www.w3.org/2000/svg" xmlns:xlink="http://www.w3.org/1999/xlink" width="1024" zoomAndPan="magnify" viewBox="0 0 768 767.999994" height="1024" preserveAspectRatio="xMidYMid meet" version="1.0"><defs><clipPath id="id1"><path d="M 0 68 L 768 68 L 768 691.414062 L 0 691.414062 Z M 0 68 " clip-rule="nonzero"/></clipPath></defs><g clip-path="url(#id1)"><path fill="#ffffff" d="M 688.683594 223.582031 C 689.144531 230.34375 689.144531 237.105469 689.144531 243.914062 C 689.144531 451.71875 531 691.371094 241.84375 691.371094 L 241.84375 691.246094 C 156.417969 691.386719 72.773438 666.917969 0.867188 620.757812 C 13.28125 622.242188 25.769531 622.996094 38.289062 623.023438 C 109.078125 623.085938 177.84375 599.324219 233.535156 555.570312 C 166.257812 554.296875 107.269531 510.421875 86.65625 446.355469 C 110.226562 450.90625 134.503906 449.972656 157.628906 443.640625 C 84.28125 428.816406 31.515625 364.351562 31.515625 289.492188 C 31.515625 288.800781 31.515625 288.15625 31.515625 287.496094 C 53.371094 299.671875 77.84375 306.429688 102.871094 307.183594 C 33.800781 261.023438 12.511719 169.097656 54.230469 97.214844 C 134.042969 195.46875 251.804688 255.195312 378.222656 261.511719 C 365.546875 206.890625 382.867188 149.660156 423.707031 111.257812 C 487.03125 51.710938 586.617188 54.761719 646.140625 118.078125 C 681.34375 111.132812 715.089844 98.210938 745.96875 79.90625 C 734.230469 116.316406 709.679688 147.238281 676.867188 166.875 C 708.023438 163.195312 738.476562 154.855469 767.148438 142.117188 C 746.03125 173.757812 719.441406 201.324219 688.683594 223.582031 Z M 688.683594 223.582031 " fill-opacity="1" fill-rule="nonzero"/></g></svg>