<svg xmlns="http://www.w3.org/2000/svg" xmlns:xlink="http://www.w3.org/1999/xlink" width="1024" zoomAndPan="magnify" viewBox="0 0 768 767.999994" height="1024" preserveAspectRatio="xMidYMid meet" version="1.0"><defs><clipPath id="id1"><path d="M 371 247.609375 L 552 247.609375 L 552 487 L 371 487 Z M 371 247.609375 " clip-rule="nonzero"/></clipPath></defs><path fill="#0072ff" d="M 371.113281 251.855469 L 311.070312 251.855469 L 273.582031 483.953125 L 333.476562 483.953125 Z M 371.113281 251.855469 " fill-opacity="1" fill-rule="nonzero"/><path fill="#0072ff" d="M 613.621094 449.125 L 690.792969 449.125 C 692.699219 457.171875 698.117188 483.804688 698.117188 483.804688 L 753.765625 483.804688 L 705.4375 252.148438 L 658.429688 252.148438 C 656.777344 251.929688 655.113281 251.851562 653.445312 251.914062 C 651.777344 251.980469 650.125 252.1875 648.492188 252.53125 C 646.859375 252.878906 645.265625 253.363281 643.71875 253.980469 C 642.167969 254.601562 640.679688 255.347656 639.257812 256.21875 C 637.832031 257.09375 636.496094 258.078125 635.242188 259.183594 C 633.988281 260.285156 632.835938 261.484375 631.789062 262.78125 C 630.738281 264.082031 629.808594 265.460938 628.996094 266.917969 C 628.183594 268.375 627.5 269.890625 626.945312 271.464844 L 538.054688 484.683594 L 601.027344 484.683594 C 601.027344 484.683594 611.277344 455.414062 613.621094 449.125 Z M 654.769531 336.734375 C 654.769531 336.734375 659.75 323.269531 662.679688 314.636719 L 666.632812 334.683594 L 681.277344 401.707031 L 631.484375 401.707031 C 635.878906 388.390625 654.769531 336.734375 654.769531 336.734375 Z M 654.769531 336.734375 " fill-opacity="1" fill-rule="nonzero"/><g clip-path="url(#id1)"><path fill="#0072ff" d="M 542.304688 408.148438 C 542.304688 381.660156 526.488281 361.609375 491.925781 345.074219 C 470.984375 334.390625 458.097656 327.222656 458.246094 315.804688 C 458.390625 304.390625 469.082031 295.902344 492.660156 295.902344 C 500.367188 295.726562 508 296.390625 515.558594 297.898438 C 523.117188 299.402344 530.421875 301.714844 537.46875 304.832031 L 542.890625 307.464844 L 551.089844 257.125 C 542.515625 253.839844 533.707031 251.371094 524.671875 249.726562 C 515.640625 248.078125 506.53125 247.273438 497.34375 247.320312 C 438.769531 247.320312 396.449219 278.78125 396.007812 323.855469 C 396.007812 357.222656 425.296875 375.804688 448.433594 386.929688 C 471.570312 398.050781 479.625 405.511719 479.625 416.195312 C 479.625 431.707031 460.882812 438.878906 443.75 438.878906 C 433.949219 439.09375 424.269531 438.121094 414.707031 435.96875 C 405.144531 433.8125 395.984375 430.539062 387.222656 426.148438 L 379.460938 422.488281 L 371.113281 474.441406 C 381.757812 478.570312 392.691406 481.667969 403.921875 483.734375 C 415.148438 485.800781 426.472656 486.800781 437.890625 486.734375 C 500.421875 487.320312 541.863281 456.148438 542.304688 408.148438 Z M 542.304688 408.148438 " fill-opacity="1" fill-rule="nonzero"/></g><path fill="#0072ff" d="M 128.898438 483.660156 L 192.894531 483.660156 L 287.203125 252.148438 L 223.355469 252.148438 L 164.777344 410.34375 L 158.480469 378.148438 L 137.539062 271.609375 C 137.375 270.867188 137.175781 270.132812 136.945312 269.40625 C 136.714844 268.679688 136.449219 267.964844 136.152344 267.261719 C 135.855469 266.5625 135.527344 265.875 135.167969 265.199219 C 134.808594 264.527344 134.421875 263.875 134.003906 263.238281 C 133.585938 262.597656 133.136719 261.980469 132.664062 261.386719 C 132.1875 260.789062 131.6875 260.214844 131.160156 259.664062 C 130.632812 259.113281 130.085938 258.585938 129.507812 258.085938 C 128.933594 257.585938 128.339844 257.109375 127.722656 256.664062 C 127.101562 256.214844 126.464844 255.796875 125.8125 255.410156 C 125.15625 255.019531 124.484375 254.660156 123.796875 254.332031 C 123.105469 254.003906 122.40625 253.707031 121.691406 253.441406 C 120.972656 253.179688 120.25 252.945312 119.511719 252.746094 C 118.777344 252.550781 118.03125 252.382812 117.28125 252.253906 C 116.53125 252.121094 115.773438 252.023438 115.015625 251.960938 C 114.253906 251.898438 113.492188 251.871094 112.730469 251.878906 C 111.96875 251.882812 111.207031 251.925781 110.445312 252 L 15.554688 252 C 15.300781 252.066406 15.066406 252.167969 14.847656 252.3125 C 14.632812 252.453125 14.441406 252.628906 14.285156 252.832031 C 14.125 253.039062 14.003906 253.265625 13.917969 253.511719 C 13.832031 253.757812 13.792969 254.007812 13.792969 254.269531 C 13.792969 254.53125 13.832031 254.78125 13.917969 255.027344 C 14.003906 255.273438 14.125 255.5 14.285156 255.707031 C 14.441406 255.910156 14.632812 256.085938 14.847656 256.226562 C 15.066406 256.371094 15.300781 256.472656 15.554688 256.539062 C 29.296875 260.273438 42.625 265.152344 55.53125 271.171875 C 57.109375 271.898438 58.644531 272.707031 60.136719 273.601562 C 61.625 274.5 63.058594 275.472656 64.441406 276.527344 C 65.824219 277.582031 67.144531 278.707031 68.402344 279.90625 C 69.65625 281.105469 70.84375 282.371094 71.960938 283.703125 C 73.078125 285.03125 74.121094 286.421875 75.082031 287.867188 C 76.046875 289.3125 76.925781 290.808594 77.726562 292.351562 C 78.523438 293.894531 79.234375 295.476562 79.855469 297.097656 C 80.480469 298.71875 81.011719 300.371094 81.453125 302.050781 Z M 128.898438 483.660156 " fill-opacity="1" fill-rule="nonzero"/></svg>